<svg xmlns="http://www.w3.org/2000/svg" width="242.86" height="300.86" viewBox="0 0 242.86 300.86">
  <g id="Group_21" data-name="Group 21" transform="translate(-86 -128)">
    <g id="Group_6" data-name="Group 6" transform="translate(754 228)">
      <g id="Group_5" data-name="Group 5" transform="translate(-668 -42)">
        <g id="Ellipse_1" data-name="Ellipse 1" fill="#dfe0d4" stroke="#353940" stroke-width="5">
          <circle cx="121.43" cy="121.43" r="121.43" stroke="none"/>
          <circle cx="121.43" cy="121.43" r="118.93" fill="none"/>
        </g>
        <g id="Group_2" data-name="Group 2" transform="translate(56.363 42.173)">
          <g id="Group_1" data-name="Group 1" transform="translate(0 0)">
            <path id="Path_1" data-name="Path 1" d="M-579.786-70.507s-6.865-3.764-11.557.477c-2.294,2.074-4.765,8.816-3.366,14.87,1.335,5.786,6.636,10.869,8.641,12.034,3.923,2.28,6.282-.663,6.282-.663s2.836,2.492,5.938,1.166c1.6-.684,7.872-6.1,9.3-12.538,1.644-5.222-.423-12.766-3.181-14.87C-573.425-74.376-579.786-70.507-579.786-70.507Z" transform="translate(595.116 85.283)" fill="none" stroke="#ff5335" stroke-width="2"/>
            <path id="Path_2" data-name="Path 2" d="M-579.908-71.484s3.446-9.33,4.983-9.383,4.771,1.431,3.79,2.174-8.217,7.766-8.217,7.766" transform="translate(594.708 85.519)" fill="none" stroke="#ff5335" stroke-width="2"/>
            <g id="Path_3" data-name="Path 3" transform="matrix(0.755, 0.656, -0.656, 0.755, 7.917, 0)" fill="none">
              <path d="M6.377,0C9.9,0,12.754,2.09,12.754,3.692S9.9,7.132,6.377,7.132,0,5.3,0,3.692,2.855,0,6.377,0Z" stroke="none"/>
              <path d="M 6.376976490020752 2.000002861022949 C 5.261546611785889 2.000002861022949 4.139586448669434 2.274312496185303 3.217766761779785 2.772392749786377 C 2.568185806274414 3.123383522033691 2.22554874420166 3.473203420639038 2.075605392456055 3.673428535461426 C 2.232448577880859 3.855728387832642 2.576716423034668 4.157296180725098 3.204056739807129 4.456132888793945 C 4.118736267089844 4.891842842102051 5.245566368103027 5.131802558898926 6.376976490020752 5.131802558898926 C 7.508386611938477 5.131802558898926 8.63521671295166 4.891842842102051 9.549896240234375 4.456132888793945 C 10.17723655700684 4.157296180725098 10.52150440216064 3.855728387832642 10.67834758758545 3.673428535461426 C 10.52840423583984 3.473203420639038 10.18576622009277 3.123383522033691 9.536186218261719 2.772392749786377 C 8.61436653137207 2.274312496185303 7.492406368255615 2.000002861022949 6.376976490020752 2.000002861022949 M 6.376976490020752 2.86102294921875e-06 C 9.898886680603027 2.86102294921875e-06 12.75395679473877 2.089602947235107 12.75395679473877 3.69242262840271 C 12.75395679473877 5.295242786407471 9.898886680603027 7.131802558898926 6.376976490020752 7.131802558898926 C 2.855066299438477 7.131802558898926 -3.814697265625e-06 5.295242786407471 -3.814697265625e-06 3.69242262840271 C -3.814697265625e-06 2.089602947235107 2.855066299438477 2.86102294921875e-06 6.376976490020752 2.86102294921875e-06 Z" stroke="none" fill="#ff5335"/>
            </g>
          </g>
        </g>
        <g id="Group_3" data-name="Group 3" transform="translate(59.486 102.565)">
          <path id="Path_4" data-name="Path 4" d="M-541.158-86.887s-12.828,16.046-13.076,23.842,7.961,13.365,13.076,13.2,13.2-4.249,13.2-13.2S-541.158-86.887-541.158-86.887Z" transform="translate(554.239 86.887)" fill="none" stroke="#ff5335" stroke-width="2"/>
          <path id="Path_5" data-name="Path 5" d="M-541.235-74.567a10.429,10.429,0,0,1-4.578,7.837" transform="translate(562.401 98.822)" fill="none" stroke="#ff5335" stroke-linecap="round" stroke-width="2"/>
        </g>
        <g id="Group_4" data-name="Group 4" transform="translate(56.745 157.503)">
          <path id="Path_6" data-name="Path 6" d="M-555.133-105.49v35.575h23.171V-106.4h-27.925v34.662l4.754,1.826" transform="translate(559.887 106.403)" fill="none" stroke="#ff5335" stroke-linecap="round" stroke-linejoin="round" stroke-width="2"/>
          <path id="Path_7" data-name="Path 7" d="M-551.082-103.292a52.045,52.045,0,0,1-1.133,14.923" transform="translate(567.201 109.368)" fill="none" stroke="#ff5335" stroke-linecap="round" stroke-width="2"/>
          <path id="Path_8" data-name="Path 8" d="M-550.033-96.706l-4.47-1.574" transform="translate(565.019 114.147)" fill="none" stroke="#ff5335" stroke-linecap="round" stroke-width="2"/>
          <path id="Path_10" data-name="Path 10" d="M-550.033-96.706l-4.47-1.574" transform="translate(570.879 112.193)" fill="none" stroke="#ff5335" stroke-linecap="round" stroke-width="2"/>
          <path id="Path_11" data-name="Path 11" d="M-550.033-96.706l-4.47-1.574" transform="translate(570.879 106.333)" fill="none" stroke="#ff5335" stroke-linecap="round" stroke-width="2"/>
          <path id="Path_9" data-name="Path 9" d="M-550.033-96.706l-4.47-1.574" transform="translate(565.019 106.333)" fill="none" stroke="#ff5335" stroke-linecap="round" stroke-width="2"/>
        </g>
        <line id="Line_1" data-name="Line 1" x2="59.883" transform="translate(107.291 64.042)" fill="none" stroke="#3e92a3" stroke-linecap="round" stroke-width="5"/>
        <line id="Line_2" data-name="Line 2" x2="96.479" transform="translate(107.291 120.598)" fill="none" stroke="#3e92a3" stroke-linecap="round" stroke-width="5"/>
        <line id="Line_3" data-name="Line 3" x2="63.21" transform="translate(103.964 175.491)" fill="none" stroke="#3e92a3" stroke-linecap="round" stroke-width="5"/>
      </g>
    </g>
    <text id="BuyIt" transform="translate(207 168)" fill="#353940" font-size="46" font-family="JuliusSansOne-Regular, Julius Sans One"><tspan x="-63.917" y="0">BuyIt</tspan></text>
  </g>
</svg>
